<svg xmlns="http://www.w3.org/2000/svg" class="icon" width="48px" height="48px"><style type="text/css">.st0{fill:#FFFFFF;}</style><path d="M6.4,3.7C6,3.8,5.3,4.3,4.8,4.7C4.4,5,3.8,6,3.7,6.5c-0.2,0.7-0.2,33.9,0,34.4c0.4,1,1.7,2.3,2.6,2.6c0.4,0.2,35,0.2,35.5,0c0.9-0.3,2.3-1.7,2.6-2.6c0.1-0.3,0.1-3.5,0.1-17.2c0-11,0-16.9-0.1-17.2c-0.1-0.2-0.3-0.6-0.6-1c-0.4-0.6-0.6-0.8-1.2-1.2c-0.4-0.3-0.9-0.5-1.1-0.6C41.4,3.6,33.9,3.6,24,3.6C10.3,3.6,6.7,3.6,6.4,3.7z"/><g><path class="st0" d="M9.3,32c1.9,1.2,3.8,1.8,5.7,1.8c2.3,0,3.5-0.6,3.5-1.9c0-0.9-1-1.6-2.9-2.2c-2.4-0.8-4.1-1.6-5-2.5S9.3,25,9.3,23.4c0-1.9,0.8-3.4,2.3-4.5s3.6-1.6,6.1-1.6c1.8,0,3.5,0.3,5.2,0.8v4.5c-1.5-0.9-3.2-1.3-5-1.3c-0.9,0-1.6,0.2-2.2,0.5s-0.8,0.7-0.8,1.3c0,0.9,0.8,1.6,2.5,2.2c1.8,0.6,3.1,1.1,4,1.6s1.6,1.1,2,1.9s0.7,1.7,0.7,2.7c0,2-0.8,3.6-2.4,4.7s-3.8,1.7-6.4,1.7c-2.1,0-4.1-0.3-5.9-1V32z"/><path class="st0" d="M40,12.8c-0.8-0.3-1.5-0.5-2.2-0.5c-1.9,0-2.9,1.1-2.9,3.2v2.2h4.4V22h-4.4v15.2h-5.7V22h-3.3v-4.2h3.3v-2.5c0-2.2,0.7-4,2.2-5.3s3.3-2,5.7-2c1.2,0,2.2,0.1,3,0.4V12.8z"/></g></svg>
