<?xml version="1.0" encoding="UTF-8"?>
<svg width="48px" height="48px" viewBox="0 0 48 48" version="1.1" xmlns="http://www.w3.org/2000/svg" xmlns:xlink="http://www.w3.org/1999/xlink">
    <!-- Generator: Sketch 44.1 (41455) - http://www.bohemiancoding.com/sketch -->
    <title>v2ex</title>
    <desc>Created with Sketch.</desc>
    <defs></defs>
    <g id="Page-1" stroke="none" stroke-width="1" fill="none" fill-rule="evenodd">
        <path d="M3.49506504,0.0787623066 C3.69753316,0.0225035162 12.9998186,0 24.1693101,0 C41.1203914,0.0225035162 44.5173565,0.0450070323 44.7535694,0.180028129 C45.9008887,0.798874824 46.3947171,0.956553025 46.9908732,1.8229384 C47.5757811,2.68932377 47.8018394,3.22925457 47.9143217,4.18565401 C47.9818111,4.83825598 48.0155558,12.1744023 47.9930593,24.7201125 L47.9930593,43.7027847 L47.4401504,45.4563402 C46.7877531,46.7615441 46.1033569,47.0548523 44.7535694,47.7074543 C44.4236213,47.8724801 42.1927225,47.9662447 38.060873,47.9887482 C35.7962296,48.0037506 26.9063792,48.0037506 11.3913219,47.9887482 C7.78064032,48 4.81110784,47.9774965 4.2149517,47.9099859 C3.25885223,47.7974684 2.59465037,47.4506167 1.7172885,46.8542735 C0.839926635,46.2579303 0.71675245,45.7551788 0.0980998502,44.6187513 C-0.0368788989,44.3824644 0.0418587048,41.1139241 0.00811401748,24.2700422 C-0.0143824407,9.93530239 0.00811401748,3.92686357 0.0980998502,3.56680731 C0.233078599,3.03797468 1.02045464,1.76652602 1.4703838,1.36146273 C2.0102988,0.877637131 3.13512171,0.157524613 3.49506504,0.0787623066 Z M12.7467026,11 C12.1286196,11.2327559 11.7473696,11.4282575 11.6029525,11.586505 C11.4585355,11.7447525 11.2575513,12.0746412 11,12.5761709 L11,19.6560383 L26.6370887,19.7509307 L30.7885312,23.5905433 L30.8012324,24.3668812 L26.5691794,28.2909796 L24.9315045,28.2880581 L11,28.2632057 L11,35.4382743 C11.1067874,35.8680466 11.3077716,36.224651 11.6029525,36.5080877 C11.8981335,36.7915244 12.2392946,36.9554951 12.6264361,37 L28.8056575,37 C29.1194335,36.9641787 29.379879,36.9070004 29.5869939,36.8284649 C29.7941088,36.7499294 30.034859,36.5860159 30.3092443,36.3367244 L41.69263,25.1763148 L42,24.6191743 L41.9952582,23.1612957 L41.5535938,22.3952691 L30.3092443,11.586505 C30.0830195,11.3976036 29.8422694,11.2533652 29.5869939,11.1537897 C29.3317184,11.0542142 29.0712729,11.002951 28.8056575,11 L12.7467026,11 Z" id="v2ex" fill="#000000" fill-rule="nonzero"></path>
    </g>
</svg>